<svg xmlns="http://www.w3.org/2000/svg" xmlns:xlink="http://www.w3.org/1999/xlink" width="200" zoomAndPan="magnify" viewBox="0 0 150 149.999998" height="200" preserveAspectRatio="xMidYMid meet" version="1.0"><defs><clipPath id="3bf9ba09e9"><path d="M 45 45.109375 L 105 45.109375 L 105 105.109375 L 45 105.109375 Z M 45 45.109375 " clip-rule="nonzero"/></clipPath></defs><g clip-path="url(#3bf9ba09e9)"><path fill="#ffffff" d="M 105.003906 75.222656 C 105.003906 58.589844 91.574219 45.109375 75.003906 45.109375 C 58.4375 45.109375 45.003906 58.589844 45.003906 75.222656 C 45.003906 89.34375 54.6875 101.195312 67.757812 104.449219 L 67.757812 84.425781 L 61.570312 84.425781 L 61.570312 75.222656 L 67.757812 75.222656 L 67.757812 71.257812 C 67.757812 61.007812 72.378906 56.257812 82.402344 56.257812 C 84.304688 56.257812 87.582031 56.628906 88.921875 57.007812 L 88.921875 65.347656 C 88.214844 65.269531 86.984375 65.234375 85.457031 65.234375 C 80.539062 65.234375 78.636719 67.105469 78.636719 71.964844 L 78.636719 75.21875 L 88.4375 75.21875 L 86.753906 84.421875 L 78.636719 84.421875 L 78.636719 105.113281 C 93.492188 103.3125 105.003906 90.613281 105.003906 75.21875 Z M 105.003906 75.222656 " fill-opacity="1" fill-rule="nonzero"/></g></svg>