<svg xmlns="http://www.w3.org/2000/svg" xmlns:xlink="http://www.w3.org/1999/xlink" width="200" zoomAndPan="magnify" viewBox="0 0 150 149.999998" height="200" preserveAspectRatio="xMidYMid meet" version="1.0"><path fill="#ffffff" d="M 62.566406 45.207031 C 59.375 45.355469 57.199219 45.867188 55.292969 46.613281 C 53.320312 47.382812 51.648438 48.410156 49.988281 50.082031 C 48.324219 51.75 47.300781 53.425781 46.539062 55.398438 C 45.800781 57.3125 45.300781 59.488281 45.160156 62.683594 C 45.019531 65.878906 44.988281 66.898438 45.003906 75.046875 C 45.015625 83.1875 45.054688 84.210938 45.207031 87.410156 C 45.359375 90.601562 45.867188 92.777344 46.613281 94.683594 C 47.382812 96.65625 48.410156 98.324219 50.082031 99.988281 C 51.75 101.652344 53.425781 102.675781 55.398438 103.4375 C 57.308594 104.175781 59.488281 104.679688 62.679688 104.816406 C 65.878906 104.957031 66.898438 104.988281 75.042969 104.972656 C 83.1875 104.957031 84.207031 104.921875 87.40625 104.769531 C 90.597656 104.617188 92.773438 104.105469 94.679688 103.359375 C 96.652344 102.589844 98.324219 101.5625 99.988281 99.894531 C 101.648438 98.222656 102.671875 96.550781 103.433594 94.574219 C 104.171875 92.667969 104.675781 90.484375 104.8125 87.296875 C 104.953125 84.097656 104.984375 83.074219 104.972656 74.933594 C 104.957031 66.789062 104.917969 65.769531 104.769531 62.570312 C 104.617188 59.375 104.105469 57.199219 103.359375 55.292969 C 102.589844 53.320312 101.5625 51.652344 99.894531 49.988281 C 98.222656 48.328125 96.550781 47.300781 94.574219 46.539062 C 92.667969 45.800781 90.484375 45.300781 87.292969 45.160156 C 84.09375 45.019531 83.070312 44.988281 74.929688 45.003906 C 66.785156 45.015625 65.765625 45.054688 62.566406 45.207031 M 62.917969 99.414062 C 59.996094 99.289062 58.40625 98.800781 57.347656 98.394531 C 55.945312 97.851562 54.949219 97.203125 53.894531 96.160156 C 52.84375 95.109375 52.191406 94.113281 51.644531 92.71875 C 51.234375 91.660156 50.738281 90.074219 50.601562 87.148438 C 50.453125 83.988281 50.417969 83.039062 50.402344 75.035156 C 50.390625 67.03125 50.417969 66.082031 50.554688 62.917969 C 50.679688 59.996094 51.167969 58.40625 51.578125 57.351562 C 52.121094 55.949219 52.765625 54.949219 53.8125 53.898438 C 54.859375 52.84375 55.859375 52.195312 57.257812 51.648438 C 58.3125 51.234375 59.898438 50.742188 62.820312 50.605469 C 65.984375 50.453125 66.929688 50.421875 74.9375 50.40625 C 82.945312 50.390625 83.894531 50.417969 87.054688 50.558594 C 89.980469 50.6875 91.566406 51.167969 92.625 51.578125 C 94.027344 52.121094 95.027344 52.765625 96.078125 53.816406 C 97.128906 54.863281 97.78125 55.859375 98.328125 57.261719 C 98.738281 58.3125 99.230469 59.902344 99.371094 62.820312 C 99.519531 65.984375 99.554688 66.933594 99.566406 74.9375 C 99.582031 82.945312 99.554688 83.894531 99.414062 87.054688 C 99.289062 89.976562 98.800781 91.566406 98.394531 92.625 C 97.851562 94.023438 97.207031 95.023438 96.15625 96.074219 C 95.109375 97.125 94.113281 97.777344 92.710938 98.324219 C 91.65625 98.738281 90.070312 99.230469 87.148438 99.367188 C 83.988281 99.515625 83.039062 99.550781 75.03125 99.566406 C 67.027344 99.578125 66.078125 99.550781 62.914062 99.414062 M 87.363281 58.957031 C 87.367188 60.945312 88.984375 62.554688 90.96875 62.546875 C 92.953125 62.546875 94.5625 60.929688 94.558594 58.945312 C 94.558594 56.957031 92.941406 55.347656 90.953125 55.351562 C 88.96875 55.355469 87.359375 56.972656 87.363281 58.957031 M 59.589844 75.015625 C 59.605469 83.519531 66.511719 90.398438 75.015625 90.382812 C 83.519531 90.367188 90.398438 83.460938 90.382812 74.957031 C 90.367188 66.457031 83.457031 59.574219 74.953125 59.589844 C 66.453125 59.605469 59.570312 66.511719 59.589844 75.015625 M 64.988281 75.003906 C 64.980469 69.484375 69.445312 65 74.964844 64.992188 C 80.484375 64.980469 84.972656 69.445312 84.980469 74.96875 C 84.992188 80.488281 80.523438 84.972656 75.003906 84.980469 C 69.484375 84.992188 65 80.523438 64.992188 75.003906 " fill-opacity="1" fill-rule="nonzero"/></svg>